<?xml version="1.0" standalone="no"?>
<!DOCTYPE svg PUBLIC "-//W3C//DTD SVG 20010904//EN"
 "http://www.w3.org/TR/2001/REC-SVG-20010904/DTD/svg10.dtd">
<svg version="1.0" xmlns="http://www.w3.org/2000/svg"
 width="700.000000pt" height="700.000000pt" viewBox="0 0 700.000000 700.000000"
 preserveAspectRatio="xMidYMid meet">
<metadata>
Created by potrace 1.14, written by Peter Selinger 2001-2017
</metadata>
<g transform="translate(0.000000,700.000000) scale(0.100000,-0.100000)"
fill="#000000" stroke="none">
<path d="M0 3500 l0 -3500 3500 0 3500 0 0 3500 0 3500 -3500 0 -3500 0 0
-3500z m3127 1214 c82 -9 84 -20 18 -123 -38 -61 -105 -141 -208 -249 -130
-136 -162 -176 -222 -278 -67 -114 -182 -248 -240 -280 -16 -9 -4 -12 70 -18
50 -4 162 -16 250 -27 88 -10 285 -28 439 -39 l278 -20 57 40 c53 37 188 123
274 174 l39 23 -54 26 c-121 59 -192 167 -193 292 0 96 20 225 39 243 28 29
51 7 219 -209 37 -48 78 -106 91 -129 21 -38 25 -40 31 -21 11 37 58 83 132
132 76 49 124 64 238 75 39 3 94 13 124 21 41 12 59 12 78 4 33 -15 25 -27
-94 -147 -114 -116 -178 -156 -342 -215 -64 -23 -135 -50 -159 -60 -47 -20
-351 -218 -370 -242 -17 -20 29 -25 348 -37 146 -5 314 -14 375 -20 60 -6 163
-12 227 -13 106 -1 119 1 133 18 33 42 55 95 65 159 6 37 20 90 31 119 71 180
303 337 499 337 51 0 70 -4 70 -13 0 -7 -31 -57 -70 -111 -38 -54 -88 -133
-111 -176 -23 -43 -60 -99 -82 -125 -38 -45 -235 -185 -260 -185 -6 0 -8 -2
-5 -5 6 -6 186 26 353 64 72 16 164 34 205 41 41 6 82 14 91 16 19 5 40 50 75
162 23 75 32 90 88 147 43 43 88 75 142 101 72 36 85 39 158 38 132 0 319 -18
323 -30 6 -18 -126 -156 -237 -250 -114 -95 -185 -132 -314 -167 l-83 -22 76
-72 c42 -39 135 -128 208 -197 87 -82 143 -128 164 -134 49 -12 45 -27 -13
-53 -46 -20 -69 -23 -178 -23 -118 -1 -128 1 -184 28 -79 39 -179 138 -213
212 -23 49 -27 73 -28 142 0 45 -3 82 -8 82 -16 0 -207 -43 -332 -75 -251 -64
-297 -70 -567 -69 l-247 0 112 -75 c62 -42 137 -95 167 -118 30 -22 114 -74
185 -114 173 -97 178 -99 196 -99 8 0 23 -6 33 -13 16 -12 9 -17 -64 -51 -69
-33 -94 -39 -168 -44 -152 -8 -271 36 -363 135 -63 68 -110 152 -134 239 -12
44 -29 74 -59 108 l-43 46 -249 10 c-137 5 -316 16 -399 24 -82 8 -211 17
-285 21 l-135 7 40 -41 c22 -22 56 -66 74 -98 19 -32 62 -101 95 -153 80 -126
119 -219 160 -383 37 -145 76 -245 107 -273 11 -9 19 -21 19 -26 0 -16 -193
-8 -268 11 -151 40 -232 102 -302 232 -56 105 -73 195 -70 359 1 80 3 181 4
225 1 59 -4 92 -17 122 l-19 41 -86 11 c-206 26 -733 63 -791 56 -101 -12
-330 -49 -327 -52 2 -2 43 -10 92 -18 183 -30 317 -80 428 -159 133 -95 260
-250 300 -367 25 -75 19 -89 -36 -83 -49 6 -229 38 -335 60 -145 30 -240 100
-289 211 -22 50 -100 164 -174 255 -16 20 -54 48 -84 63 l-53 26 -94 -15
c-191 -30 -290 -37 -399 -26 -58 6 -152 15 -209 21 -57 5 -112 14 -123 20 -19
10 -19 12 -4 27 14 15 34 14 238 -2 250 -20 241 -21 643 39 377 56 399 58 568
52 l157 -6 16 31 c9 17 14 42 11 57 -31 164 -48 269 -53 331 -17 201 65 387
204 463 100 54 177 67 367 62 94 -2 193 -7 222 -11z"/>
<path d="M2737 4497 c-45 -45 -96 -103 -114 -127 -25 -36 -12 -27 61 45 114
111 162 165 146 165 -6 0 -48 -37 -93 -83z"/>
<path d="M2868 4505 c-21 -20 -38 -41 -38 -47 0 -13 57 38 71 65 13 24 10 22
-33 -18z"/>
<path d="M2979 4473 c-53 -60 -73 -86 -62 -80 6 4 30 30 53 57 44 53 51 69 9
23z"/>
<path d="M2477 4295 c-23 -21 -26 -29 -20 -54 8 -29 8 -28 29 25 12 30 21 54
20 54 0 0 -14 -12 -29 -25z"/>
<path d="M4234 4250 c-78 -39 -130 -83 -154 -131 -11 -21 -20 -41 -20 -45 0
-3 37 29 83 72 45 42 102 90 126 106 58 37 40 36 -35 -2z"/>
<path d="M4335 4250 c-3 -6 1 -7 9 -4 18 7 21 14 7 14 -6 0 -13 -4 -16 -10z"/>
<path d="M5155 4181 c-60 -28 -170 -106 -196 -138 -8 -9 -9 -14 -4 -11 53 29
254 150 270 162 33 26 -3 19 -70 -13z"/>
<path d="M5865 4141 c-22 -11 -33 -20 -25 -20 8 0 33 8 55 18 22 11 33 20 25
20 -8 0 -33 -8 -55 -18z"/>
<path d="M6133 4143 c9 -2 23 -2 30 0 6 3 -1 5 -18 5 -16 0 -22 -2 -12 -5z"/>
<path d="M3875 4093 c8 -18 18 -33 20 -33 10 0 4 16 -16 40 l-20 25 16 -32z"/>
<path d="M5033 4021 c-41 -26 -75 -60 -105 -102 -54 -76 -84 -132 -42 -79 15
19 70 77 123 127 53 51 93 93 90 93 -3 0 -33 -18 -66 -39z"/>
<path d="M6017 4003 c-20 -14 -37 -30 -37 -35 0 -6 18 5 40 22 35 28 46 40 37
40 -1 0 -19 -12 -40 -27z"/>
<path d="M3130 3553 c23 -35 45 -63 47 -63 10 0 -43 82 -66 102 -16 16 -10 2
19 -39z"/>
<path d="M2054 3551 c110 -63 219 -144 310 -230 40 -38 61 -53 49 -36 -30 43
-169 174 -226 214 -48 33 -150 82 -197 96 -14 3 15 -16 64 -44z"/>
<path d="M1900 3580 c8 -5 20 -10 25 -10 6 0 3 5 -5 10 -8 5 -19 10 -25 10 -5
0 -3 -5 5 -10z"/>
<path d="M5561 3560 c0 -8 4 -22 9 -30 12 -18 12 -2 0 25 -6 13 -9 15 -9 5z"/>
<path d="M5682 3471 c25 -48 81 -101 133 -125 60 -29 185 -46 185 -26 0 6 -22
10 -49 10 -81 0 -150 28 -207 85 -27 27 -58 61 -68 75 -9 14 -7 5 6 -19z"/>
<path d="M5810 3506 c0 -2 8 -10 18 -17 15 -13 16 -12 3 4 -13 16 -21 21 -21
13z"/>
<path d="M5779 3451 c13 -24 59 -57 97 -71 l29 -10 -25 18 c-13 9 -44 32 -68
50 -31 24 -40 27 -33 13z"/>
<path d="M2175 3388 c93 -83 131 -110 60 -43 -38 36 -79 71 -90 77 -11 6 3 -9
30 -34z"/>
<path d="M3160 3427 c0 -27 172 -377 185 -377 9 0 -37 115 -85 215 -43 88
-100 181 -100 162z"/>
<path d="M4460 3426 c0 -2 8 -10 18 -17 15 -13 16 -12 3 4 -13 16 -21 21 -21
13z"/>
<path d="M4500 3396 c0 -2 8 -10 18 -17 15 -13 16 -12 3 4 -13 16 -21 21 -21
13z"/>
<path d="M1990 3272 c0 -15 65 -70 110 -92 l45 -22 -40 34 c-60 51 -115 89
-115 80z"/>
<path d="M4531 3243 c46 -47 113 -80 190 -93 90 -14 93 -12 19 14 -36 12 -105
43 -154 68 l-88 46 33 -35z"/>
<path d="M4540 3164 c0 -10 108 -54 158 -64 29 -5 68 -6 94 -1 l43 9 -46 1
c-65 1 -153 19 -205 41 -24 11 -44 17 -44 14z"/>
<path d="M3131 3080 c-1 -17 45 -120 54 -120 3 0 -2 14 -11 32 -9 17 -22 47
-29 67 -8 20 -14 29 -14 21z"/>
<path d="M3280 2950 c6 -11 13 -20 16 -20 2 0 0 9 -6 20 -6 11 -13 20 -16 20
-2 0 0 -9 6 -20z"/>
</g>
</svg>
